# xmcd
#
# Track frame offsets: 
#        150
#        15856
#        32735
#        73687
#        118349
#        135591
#        170400
#        195214
#        219224
#        254449
#        277318
#
# Disc length: 4540 seconds
#
# Revision: 2
# Processed by: cddbd v1.5.2PL0 Copyright (c) Steve Scherf et al.
# Submitted via: ExactAudioCopyFreeDBPlugin 1.0
#
DISCID=9a11ba0b
DTITLE=Acoustik Wire - Assorted Blues, Ballads and Other Hippy Related S
DTITLE=ongs
DYEAR=2007
DGENRE=Blues
TTITLE0=Junko partner
TTITLE1=Death don't have no mercy
TTITLE2=Cuttin' out - Mellow down easy
TTITLE3=The very thing
TTITLE4=Brotherhood
TTITLE5=Bye bye baby
TTITLE6=I am louisiana's friend
TTITLE7=Sweet home chicago
TTITLE8=Ain't no sunshine
TTITLE9=Mystery train
TTITLE10=Baby please don't go - Work song
EXTD=recorded april 29, 2006 at "nisi", kavala, greece
EXTT0=
EXTT1=
EXTT2=
EXTT3=
EXTT4=
EXTT5=
EXTT6=
EXTT7=
EXTT8=
EXTT9=
EXTT10=
PLAYORDER=
